<svg width="730" height="730" viewBox="0 0 730 730" fill="none" xmlns="http://www.w3.org/2000/svg">
<path fill-rule="evenodd" clip-rule="evenodd" d="M0 365V730H365H730V365V0H365H0V365ZM29.668 29.665C29.301 30.033 29 181.008 29 365.167V700H365.001H701.003L700.751 364.75L700.5 29.5L365.418 29.249C181.123 29.11 30.036 29.298 29.668 29.665ZM533 150.935C520.43 154.773 513.331 164.271 512.736 178.051L512.5 183.5L522.25 183.786L532 184.072V181.004C532 176.766 534.333 171.58 537.117 169.631C540.684 167.132 548.169 167.473 550.711 170.25C553.706 173.522 554.276 176.413 552.669 180.177C551.889 182.004 542.871 193.175 532.63 205L514.01 226.5L514.005 234.25L514 242H544.5H575V234V226H557.5C547.875 226 540.008 225.663 540.018 225.25C540.028 224.837 546.331 217.525 554.025 209C570.382 190.877 573.111 186.172 573.783 174.94C574.159 168.658 573.882 166.689 572.146 163.287C569.413 157.929 563.704 153.302 557.568 151.471C552.398 149.929 537.371 149.601 533 150.935ZM337.5 177.607C314.287 180.015 285.85 188.032 266.927 197.503C213.219 224.383 172.61 275.489 160.055 332C155.62 351.96 155.5 353.2 155.537 378.5C155.576 404.566 156.213 410.298 161.15 429C170.068 462.779 186.673 492.123 211.313 517.646C246.616 554.213 290.639 574.963 341.653 579.08C386.956 582.736 435.246 569.196 472.65 542.35C480.961 536.384 499 521.089 499 520.007C499 519.223 450.321 470.759 446.756 467.993L444.012 465.864L437.441 471.439C411.801 493.191 384.114 502.877 351 501.68C323.917 500.701 302.767 493.035 280.166 476.004C257.196 458.695 240.162 431.121 234.324 401.797C232.247 391.36 232.01 367.368 233.882 357C243.018 306.407 284.135 265.311 334.385 256.548C345.762 254.564 366.238 254.564 377.615 256.548C399.423 260.351 421.85 271.146 437.832 285.533L443.163 290.332L470.698 262.797L498.233 235.262L488.867 227.079C478.599 218.109 461.705 206.394 450 200.126C433.242 191.152 409.62 183.23 388.5 179.5C379.79 177.962 346.12 176.712 337.5 177.607Z" fill="black" fill-opacity="0.982"/>
</svg>
