<svg width="500" height="114" viewBox="0 0 500 114" fill="none" xmlns="http://www.w3.org/2000/svg">
<path fill-rule="evenodd" clip-rule="evenodd" d="M10.0673 2.14502C7.53328 3.39902 4.62828 5.96101 3.06728 8.31901L0.399277 12.35L0.0982765 54.424C-0.230723 100.487 -0.011723 102.758 5.25228 107.852C11.5683 113.965 11.8583 114 56.1173 113.993C81.4303 113.99 97.8193 113.594 100.22 112.927C105.686 111.409 111.392 105.892 112.814 100.75C113.652 97.719 113.905 84.422 113.694 54.425L113.399 12.35L110.715 8.29601C109.099 5.85501 106.287 3.39701 103.649 2.12001C99.3953 0.0610137 98.0323 -0.00098892 56.8333 1.10805e-05C15.4623 0.00101108 14.2903 0.0540152 10.0673 2.14502ZM10.8893 5.24901C9.07128 6.48601 6.64228 8.77001 5.49128 10.323C3.44328 13.087 3.39928 14.073 3.39928 56.823V100.499L5.80028 103.866C7.12128 105.717 10.0463 108.07 12.3003 109.094C16.0813 110.811 19.5383 110.955 56.8993 110.955C94.2603 110.955 97.7173 110.811 101.498 109.094C103.752 108.07 106.677 105.717 107.998 103.866L110.399 100.499V56.823C110.399 14.073 110.355 13.087 108.307 10.323C107.156 8.77001 104.727 6.48601 102.909 5.24901C99.6083 3.00201 99.5393 2.99901 56.8993 2.99901C14.2593 2.99901 14.1903 3.00201 10.8893 5.24901ZM18.8993 45.722C18.8993 69.027 19.1103 73.13 20.2203 71.472C23.7973 66.133 49.8993 20.087 49.8993 19.116C49.8993 18.341 45.1503 17.999 34.3993 17.999H18.8993V45.722ZM42.3183 54.249C30.8923 74.187 20.8963 91.511 20.1063 92.749L18.6693 94.999L35.0343 94.969L51.3993 94.939L72.8993 57.345C84.7243 36.669 94.5493 19.357 94.7323 18.875C94.9163 18.393 87.8723 17.999 79.0793 17.999H63.0933L42.3183 54.249ZM160.081 27.518C154.307 30.026 150.925 33.026 147.877 38.339C143.493 45.983 143.81 47.6 149.948 48.916C156.966 50.421 157.899 50.302 157.899 47.899C157.899 46.744 159.429 44.269 161.299 42.399C164.163 39.535 165.411 38.999 169.222 38.999C177.942 38.999 183.049 46.409 180.98 56.059C179.679 62.123 177.885 65.756 174.744 68.687C171.472 71.74 164.022 74.951 160.149 74.977C157.343 74.996 156.899 74.657 156.899 72.499C156.899 70.089 156.665 69.999 150.411 69.999H143.922L143.992 78.999L144.063 87.999H169.529H194.994L194.697 81.749L194.399 75.499L189.203 75.199L184.006 74.898L187.861 69.805C191.736 64.685 194.899 55.949 194.899 50.365C194.899 41.203 188.958 31.294 181.408 27.864C176.483 25.627 164.87 25.438 160.081 27.518ZM205.899 56.999V87.999H213.899H221.899V72.581C221.899 64.101 222.179 56.434 222.52 55.544C223.331 53.432 228.098 50.999 231.426 50.999C232.996 50.999 235.229 52.175 236.976 53.922C239.614 56.56 239.899 57.486 239.899 63.422V69.999H246.899H253.899V62.467C253.899 54.209 252.527 49.989 248.466 45.758C242.197 39.227 232.972 37.64 223.649 41.49C222.067 42.144 221.899 41.436 221.899 34.106V25.999H213.899H205.899V56.999ZM275.321 27.417C266.417 31.295 260.569 40.05 260.542 49.546C260.498 64.452 271.249 73.999 288.077 73.999H294.899V80.999V87.999H301.353H307.808L308.103 81.249L308.399 74.499L312.649 74.192L316.899 73.884V66.942V59.999H312.399H307.899V51.205C307.899 43.06 307.659 42.011 304.649 36.998C300.28 29.723 293.414 25.981 284.535 26.038C281.16 26.06 277.014 26.68 275.321 27.417ZM339.067 28.602C333.528 31.363 329.936 35.273 327.43 41.271C325.037 46.999 325.368 47.719 330.948 48.916C337.966 50.421 338.899 50.302 338.899 47.899C338.899 46.744 340.429 44.269 342.299 42.399C345.163 39.535 346.411 38.999 350.222 38.999C358.942 38.999 364.049 46.409 361.98 56.059C360.679 62.123 358.885 65.756 355.744 68.687C352.472 71.74 345.022 74.951 341.149 74.977C338.343 74.996 337.899 74.657 337.899 72.499C337.899 70.11 337.632 69.999 331.899 69.999H325.899V78.999V87.999H350.899H375.899V81.499V74.999H370.406H364.912L368.447 70.369C373.936 63.177 375.213 59.456 375.263 50.499C375.313 41.639 373.49 36.784 368.241 31.802C361.44 25.348 348.456 23.924 339.067 28.602ZM384.151 47.749C384.428 64.565 384.859 70.293 386.053 72.999C391.924 86.315 406.523 91.577 419.474 85.045L425.33 82.091L428.68 84.646C430.523 86.051 432.14 87.043 432.273 86.85C432.407 86.657 434.214 84.084 436.29 81.132C438.366 78.18 439.69 75.444 439.232 75.053C438.774 74.661 437.113 73.374 435.541 72.192L432.684 70.042L432.841 48.02L432.999 25.999H425.449H417.899V47.049C417.899 70.754 417.383 73.024 411.56 74.946C407.628 76.244 404.367 75.302 401.399 72.011C399.549 69.96 399.376 68.149 399.095 47.896L398.791 25.999H391.292H383.793L384.151 47.749ZM457.399 27.878C443.185 34.398 438.708 53.3 448.595 65.05C453.363 70.716 459.31 73.327 468.557 73.812L476.899 74.25V81.124V87.999H483.853H490.808L491.103 81.249L491.399 74.499L495.649 74.192L499.899 73.884V66.942V59.999H495.399H490.899L490.877 51.749C490.844 39.453 486.187 31.515 476.681 27.55C471.63 25.443 462.363 25.601 457.399 27.878ZM279.899 38.657C276.798 39.88 272.902 44.464 272.318 47.577C271.465 52.128 274.221 57.449 278.478 59.469C280.796 60.569 283.921 60.998 288.151 60.797L294.399 60.499L294.723 55.499C295.129 49.22 293.623 44.028 290.559 41.15C288.143 38.879 282.613 37.586 279.899 38.657ZM461.348 39.501C455.479 42.492 453.39 49.18 456.465 55.127C458.487 59.037 463.3 60.999 470.867 60.999H476.899V53.015C476.899 45.711 476.665 44.771 474.149 41.98C470.794 38.258 465.717 37.275 461.348 39.501ZM87.1063 53.249C83.2543 59.987 76.2653 72.136 71.5743 80.249L63.0463 94.999H78.9723H94.8993V67.999C94.8993 53.149 94.7213 40.999 94.5043 40.999C94.2873 40.999 90.9583 46.511 87.1063 53.249Z" fill="black" fill-opacity="0.726"/>
</svg>
