<svg width="1908" height="667" viewBox="0 0 1908 667" fill="none" xmlns="http://www.w3.org/2000/svg">
<path fill-rule="evenodd" clip-rule="evenodd" d="M24.9623 0.272827C24.8053 2.04214 24.7164 26.4146 24.8323 35.759L24.9843 48.0042H148.436C232.72 48.0042 271.888 48.332 271.888 49.0368C271.888 49.6056 254.387 79.181 232.998 114.761C211.608 150.341 173.687 213.415 148.729 254.923C5.54686 493.051 0.993651 500.674 0.993651 502.277C0.993651 502.579 81.2872 502.826 179.424 502.826H357.854V478.836V454.845H226.072C153.592 454.845 94.0242 454.578 93.6973 454.252C93.3715 453.926 95.9295 449.091 99.3801 443.507C102.832 437.923 121.856 406.364 141.658 373.377C161.459 340.39 209.717 260.096 248.899 194.947C369.647 -5.83379 364.851 2.20707 364.851 0.572713C364.851 0.049917 25.0082 -0.249969 24.9623 0.272827ZM580.015 251.175L580.267 502.327L706.467 502.581L832.668 502.834V478.84V454.845H730.208H627.748V353.385V251.924H730.208H832.668V227.934V203.943H730.208H627.748V125.974V48.0042H730.208H832.668V24.0135V0.0229246H706.215H579.763L580.015 251.175ZM1604.37 251.425V502.826H1753.31H1902.25V478.836V454.845H1777.8H1653.35V227.434V0.0229246H1628.86H1604.37V251.425ZM1212.74 11.2685C1207.29 25.0381 1200.49 42.4423 1196.03 54.0018C1194.02 59.2248 1190.87 67.3216 1189.03 71.9948C1182.3 89.0961 1172.55 114.007 1164.2 135.47C1156.02 156.483 1139.37 199.09 1120.85 246.427C1116.12 258.522 1111.03 271.567 1109.54 275.415C1108.04 279.264 1102.88 292.534 1098.05 304.904C1093.23 317.274 1088.25 330.094 1086.99 333.393C1085.73 336.691 1081.51 347.487 1077.61 357.383C1073.71 367.279 1065.61 387.971 1059.61 403.365C1053.61 418.759 1043.91 443.5 1038.06 458.344C1026.64 487.331 1021.59 500.718 1021.59 502.036C1021.59 502.489 1032.71 502.741 1046.3 502.594L1071.01 502.327L1074.25 493.83C1076.04 489.157 1081.13 475.437 1085.58 463.342C1097.22 431.653 1104.75 411.234 1113.59 387.372C1117.86 375.826 1121.92 364.465 1122.62 362.126L1123.87 357.874L1230.28 358.128L1336.69 358.383L1344.13 378.875C1348.22 390.145 1354.19 406.564 1357.38 415.361C1360.57 424.157 1366.66 441.026 1370.9 452.846C1381.99 483.737 1385.3 492.747 1387.43 497.828L1389.31 502.327L1413.87 502.594C1427.97 502.747 1438.43 502.477 1438.43 501.961C1438.43 501.466 1435.22 492.799 1431.3 482.701C1423.27 462.016 1420.64 455.199 1417.06 445.849C1415.7 442.275 1411.68 431.929 1408.14 422.858C1404.6 413.786 1389.24 374.202 1374.01 334.892C1358.78 295.582 1344.81 259.596 1342.97 254.923C1341.13 250.25 1337.99 242.153 1336 236.93C1334.01 231.707 1331.44 225.185 1330.29 222.436C1329.14 219.687 1327.39 215.189 1326.4 212.44C1325.42 209.691 1323.3 204.068 1321.69 199.945C1320.09 195.821 1306.34 160.376 1291.12 121.179C1260.52 42.3144 1258.88 38.109 1250.32 16.2666L1244.34 1.02253H1230.57H1216.79L1212.74 11.2685ZM1228.91 96.1514C1227.67 98.1626 1145.35 303.414 1144.08 307.653L1143.41 309.902H1229.45C1276.76 309.902 1315.48 309.648 1315.48 309.339C1315.48 309.029 1313.71 304.418 1311.56 299.093C1309.4 293.767 1302.02 275.24 1295.16 257.922C1288.3 240.604 1274.83 206.642 1265.22 182.452C1255.61 158.261 1244.24 129.472 1239.96 118.477C1231.42 96.5972 1230.18 94.0902 1228.91 96.1514ZM988.309 579.428C987.923 579.814 987.607 581.629 987.607 583.462V586.794H993.605H999.602V625.279V663.763H1008.1H1016.6V660.265C1016.6 656.786 1016.57 656.766 1012.11 656.766H1007.62L1007.36 618.031L1007.1 579.297L998.055 579.012C993.08 578.855 988.694 579.043 988.309 579.428ZM1341.86 580.223C1341.56 581.008 1341.46 582.695 1341.64 583.972C1341.93 586.052 1342.57 586.325 1347.72 586.594L1353.46 586.894V625.328V663.763H1361.96H1370.46V660.265C1370.46 656.785 1370.43 656.766 1365.96 656.766H1361.46V617.781V578.797H1351.93C1344.6 578.797 1342.28 579.126 1341.86 580.223ZM229.558 588.043C229.205 592.579 228.913 600 228.91 604.537C228.907 609.073 228.636 612.783 228.309 612.783C227.982 612.783 226.437 611.875 224.876 610.763C217.079 605.211 202.302 603.997 193.337 608.171C182.245 613.336 176.612 622.429 176.549 635.275C176.502 644.771 178.554 650.152 184.572 656.313C194.303 666.275 208.861 668.024 223.16 660.95C226.321 659.384 229.133 658.328 229.407 658.602C229.68 658.874 229.904 660.148 229.904 661.431C229.904 663.486 230.38 663.763 233.902 663.763H237.901V621.78V579.796H234.05H230.2L229.558 588.043ZM1516.4 593.291V606.786H1512.4C1508.5 606.786 1508.4 606.869 1508.4 610.284C1508.4 613.7 1508.5 613.783 1512.4 613.783H1516.4V629.309C1516.4 646.884 1517.15 649.836 1523.2 656.102C1525.23 658.21 1528.7 660.895 1530.89 662.069C1538.77 666.275 1553.4 664.271 1558.35 658.31C1559.48 656.946 1559.34 656.346 1557.4 654.284L1555.12 651.861L1551.3 653.813C1545.76 656.64 1536.75 656.481 1532.29 653.479C1525.88 649.159 1524.34 644.671 1523.68 628.296L1523.09 613.783H1530.24H1537.39V610.33V606.877L1530.64 606.582L1523.9 606.286L1523.62 593.041L1523.34 579.796H1519.87H1516.4V593.291ZM295.435 588.016C293.386 590.94 293.469 593.11 295.707 595.135C297.837 597.064 302.942 597.322 304.675 595.59C306.373 593.892 306.162 589.224 304.304 587.364C301.972 585.033 297.283 585.377 295.435 588.016ZM649.74 587.793C645.778 591.755 647.923 596.79 653.573 596.79C658.193 596.79 659.736 595.372 659.736 591.127C659.736 585.902 653.658 583.875 649.74 587.793ZM1623.01 587.622C1621.08 589.76 1620.84 593.875 1622.56 595.59C1624.27 597.301 1629.93 597.074 1631.78 595.219C1635.27 591.73 1632.37 585.794 1627.18 585.794C1625.8 585.794 1623.92 586.617 1623.01 587.622ZM18.9556 606.264C12.5531 608.319 6.64944 613.778 3.06084 620.959C0.500844 626.083 -0.00496154 628.268 3.64994e-05 634.185C0.00703376 643.045 1.17758 647.325 5.26898 653.439C9.16645 659.263 17.1513 664.323 23.9137 665.253C30.621 666.176 39.6075 664.285 45.2923 660.755C51.29 657.031 51.9737 657.032 51.9737 660.765C51.9737 663.597 52.1956 663.763 55.9721 663.763H59.9705V634.275V604.787H55.9721C52.0517 604.787 51.9737 604.856 51.9737 608.368C51.9737 610.338 51.6358 611.798 51.224 611.612C50.8121 611.425 48.0002 609.962 44.9764 608.359C40.4892 605.98 38.0091 605.386 31.4817 605.127C26.3907 604.925 21.8395 605.337 18.9556 606.264ZM371.934 606.444C365.186 608.918 357.396 617.077 355.449 623.711C353.435 630.575 353.379 642.695 355.341 647.39C358.006 653.768 362.655 658.544 369.465 661.896C374.954 664.598 377.085 665.096 383.154 665.095C396.698 665.092 406.264 659.719 411.394 649.234C413.671 644.579 414.082 642.423 414.117 634.919C414.164 624.927 412.126 619.228 406.49 613.592C398.966 606.068 382.342 602.629 371.934 606.444ZM728.979 606.75C726.538 607.857 723.899 610.067 722.735 611.976C720.344 615.898 720.083 622.664 722.169 626.696C723.695 629.647 730.745 634.547 736.705 636.8C744.663 639.809 748.708 643.66 748.686 648.211C748.658 653.666 745.587 655.767 737.639 655.767C732.996 655.767 732.092 655.395 729.143 652.268C725.862 648.788 724.312 648.218 721.293 649.376C716.385 651.259 724.886 662.956 732.153 664.319C739.109 665.624 747.198 664.384 751.089 661.417C755.897 657.749 757.03 655.314 757.03 648.651C757.03 639.721 754.978 637.173 743.038 631.275C737.47 628.526 731.969 625.421 730.812 624.373C728.318 622.116 728.119 619.069 730.265 616.005C731.56 614.155 732.765 613.783 737.47 613.783C742.605 613.783 743.453 614.11 746.799 617.377C750.427 620.919 750.517 620.946 753.089 619.261C754.523 618.321 755.698 617.031 755.698 616.395C755.698 614.256 749.38 607.549 746.059 606.162C741.438 604.231 733.96 604.489 728.979 606.75ZM904.343 606.179C895.378 609.494 888.498 616.488 885.671 625.16C883.829 630.809 884.806 643.155 887.552 648.912C890.147 654.355 895.698 660.22 900.664 662.767C908.823 666.95 921.355 666.09 929.946 660.755C935.943 657.031 936.627 657.032 936.627 660.765C936.627 663.597 936.849 663.763 940.626 663.763H944.624V634.775V605.786H941.125C937.812 605.786 937.627 605.966 937.627 609.193V612.599L930.503 608.945C924.408 605.818 922.278 605.252 915.758 605.032C911.062 604.873 906.682 605.313 904.343 606.179ZM1171.52 606.638C1166.23 609.448 1163.54 614.075 1163.54 620.351C1163.54 627.611 1166.33 630.667 1178.03 636.247C1188.64 641.305 1192 644.652 1191.08 649.24C1190.3 653.155 1188.62 654.731 1184.17 655.735C1177.37 657.268 1172.51 655.19 1169 649.252C1168.02 647.604 1167.77 647.598 1164.75 649.159C1161.06 651.068 1161.08 650.992 1162.94 654.567C1167.79 663.872 1181.38 667.648 1191.57 662.514C1197.2 659.67 1199.52 655.308 1199.52 647.523C1199.52 642.357 1199.17 641.386 1196.02 637.895C1193.5 635.108 1189.76 632.831 1182.79 629.825C1177.44 627.523 1172.73 625.108 1172.32 624.459C1171.01 622.4 1171.48 616.984 1173.11 615.353C1174.15 614.308 1176.51 613.783 1180.15 613.783C1185.17 613.783 1185.91 614.088 1188.94 617.396C1192.22 620.975 1192.27 620.992 1194.89 619.28C1198.05 617.207 1198.13 616.286 1195.5 611.976C1191.54 605.47 1178.98 602.675 1171.52 606.638ZM1257.83 606.637C1244.24 611.336 1237.86 621.516 1238.72 637.149C1239.23 646.503 1241.26 651.264 1247.17 656.967C1253.11 662.701 1259.48 665.063 1269 665.063C1281.72 665.063 1290.8 659.833 1296.27 649.359C1298.6 644.894 1298.93 643.109 1298.93 634.775C1298.93 626.884 1298.56 624.567 1296.71 621.065C1289.67 607.732 1272.79 601.468 1257.83 606.637ZM1701.32 605.662C1693.88 608.097 1686.79 614.099 1683.1 621.086C1679.88 627.182 1679.89 642.382 1683.12 648.491C1686.59 655.074 1690.97 659.443 1697.11 662.444C1701.75 664.716 1703.99 665.183 1709.78 665.092C1730.53 664.767 1741.78 653.721 1741.68 633.775C1741.65 628.057 1741.12 625.259 1739.43 621.985C1733.71 610.847 1725.2 605.659 1711.82 605.148C1707.43 604.981 1702.7 605.211 1701.32 605.662ZM1791.61 606.112C1789.87 606.758 1788.1 607.622 1787.7 608.035C1786.43 609.325 1784.3 608.855 1784.3 607.286C1784.3 606.203 1783.18 605.786 1780.3 605.786H1776.3V635.275V664.763H1780.3H1784.3V645.239C1784.3 623.531 1784.82 621.042 1790.35 616.386C1793.45 613.782 1794.19 613.61 1800.89 613.949C1813.64 614.592 1815.28 618.248 1815.28 645.948V664.763H1819.35H1823.42L1823.1 642.522C1822.8 622.001 1822.61 619.972 1820.63 616.282C1817.93 611.263 1814.79 608.313 1810.05 606.334C1805.75 604.535 1796.19 604.42 1791.61 606.112ZM1879.53 606.75C1873.94 609.285 1871.27 613.738 1871.27 620.514C1871.26 627.458 1873.95 630.325 1886.04 636.272C1891.14 638.783 1896.2 641.722 1897.28 642.804C1899.25 644.773 1899.93 650.199 1898.49 652.368C1897.03 654.54 1892.94 655.957 1888.22 655.92C1882.71 655.877 1880.17 654.59 1877.85 650.661C1876.37 648.143 1875.94 647.984 1873.24 648.927C1869.31 650.297 1868.9 651.168 1870.63 654.488C1872.44 657.975 1875.77 661.029 1880.19 663.268C1884.62 665.511 1895.49 664.908 1900.2 662.158C1904.6 659.588 1907.25 654.097 1907.24 647.56C1907.24 639.279 1905.07 636.692 1893.55 631.227C1879.46 624.545 1876.94 621.535 1880.81 616.005C1882.11 614.161 1883.32 613.783 1887.94 613.783C1893.05 613.783 1893.8 614.086 1896.91 617.38C1900.2 620.87 1900.37 620.928 1902.77 619.356C1905.82 617.36 1905.91 614.9 1903.08 611.293C1898.27 605.179 1887.54 603.11 1879.53 606.75ZM95.1108 628.027C95.4567 650.263 95.4576 650.27 98.2326 654.99C102.359 662.011 107.678 664.769 117.036 664.741C122.245 664.726 125.74 664.132 128.803 662.742C134.131 660.324 133.942 660.323 133.942 662.764C133.942 664.43 134.608 664.763 137.94 664.763H141.938V635.275V605.786H138.057H134.175L133.696 625.528C133.401 637.665 132.738 646.529 131.975 648.538C129.364 655.412 118.448 658.78 110.985 655.015C104.261 651.623 103.497 648.817 103.101 626.028L102.749 605.786H98.7563H94.7639L95.1108 628.027ZM284.882 609.735V613.683L290.63 613.983L296.378 614.283L296.645 639.523L296.912 664.763H300.393H303.875V635.275V605.786H294.379H284.882V609.735ZM533.785 606.676C533.785 607.165 538.561 618.297 544.398 631.416C550.235 644.534 556.156 657.853 557.557 661.015C558.957 664.176 560.411 666.762 560.79 666.762C561.169 666.762 563.857 661.476 566.764 655.017C569.671 648.557 575.36 635.926 579.407 626.949C583.454 617.972 587.039 609.538 587.373 608.206C587.943 605.936 587.723 605.786 583.818 605.786C579.707 605.786 579.627 605.855 577.168 611.534C569.635 628.933 561.311 646.77 560.725 646.77C560.355 646.77 556.055 637.556 551.168 626.293L542.282 605.816L538.033 605.801C535.697 605.793 533.785 606.186 533.785 606.676ZM802.859 627.028L803.179 648.27L806.178 654.252C808.643 659.169 810.009 660.655 813.847 662.594C820.21 665.808 830.426 665.948 836.396 662.902C841.527 660.284 841.664 660.281 841.664 662.764C841.664 664.43 842.331 664.763 845.663 664.763H849.661V635.275V605.786H845.737H841.811L841.488 626.028C841.198 644.144 840.955 646.621 839.165 649.614C833.611 658.903 818.553 658.998 813.226 649.778C811.427 646.663 811.169 644.107 810.828 626.037L810.447 605.786H806.492H802.538L802.859 627.028ZM1422.62 628.027C1422.96 648.752 1423.14 650.559 1425.23 654.516C1430.64 664.759 1445.65 668.353 1457.48 662.237C1461.16 660.331 1461.42 660.37 1461.42 662.824C1461.42 664.593 1461.95 664.84 1465.17 664.573L1468.92 664.263L1469.18 635.025L1469.45 605.786H1465.59H1461.73L1461.07 616.438C1460.71 622.296 1460.42 631.405 1460.42 636.68C1460.41 644.486 1460.05 646.876 1458.43 649.528C1452.55 659.171 1437.99 659.191 1432.73 649.563C1431.2 646.766 1430.88 643.221 1430.61 626.028L1430.29 605.786H1426.27H1422.24L1422.62 628.027ZM638.744 610.234V613.683L644.492 613.983L650.239 614.283L650.506 639.023L650.774 663.763H654.255H657.736V635.275V606.786H648.24H638.744V610.234ZM1612.36 610.284V613.783H1617.86H1623.36V638.773V663.763H1626.86H1630.36V635.275V606.786H1621.36H1612.36V610.284ZM22.8711 613.343C10.269 617.225 4.4513 633.84 11.1007 646.962C16.0967 656.822 30.1962 660.731 41.007 655.252C46.9247 652.253 50.4503 647.362 52.0327 639.952C54.6476 627.712 47.7333 615.721 36.4158 612.871C30.9509 611.495 28.6068 611.577 22.8711 613.343ZM908.138 613.257C897.543 616.095 891.047 628.073 893.606 640.051C895.838 650.5 902.413 656.371 913.12 657.476C927.364 658.946 937.132 649.458 937.005 634.275C936.968 629.856 936.345 626.118 935.314 624.129C932.922 619.518 926.153 614.152 921.132 612.887C915.746 611.531 914.444 611.569 908.138 613.257ZM200.854 614.1C194.199 615.965 190.009 619.394 187.315 625.18C182.997 634.451 184.549 644.662 191.301 651.413C196.215 656.328 202.025 658.231 209.709 657.443C221.788 656.205 228.874 647.908 228.894 634.975C228.908 626.264 224.76 618.878 217.815 615.248C213.899 613.202 205.973 612.665 200.854 614.1ZM374.338 614.596C369.429 616.89 364.473 622.364 362.848 627.291C362.179 629.317 361.814 633.844 362.038 637.352C362.361 642.421 363.06 644.607 365.441 647.999C369.958 654.432 375.759 657.265 384.416 657.266C390.462 657.266 392.09 656.866 395.653 654.508C402.412 650.036 405.098 645.024 405.589 635.97C405.95 629.301 405.69 627.69 403.632 623.858C402.326 621.427 399.55 618.054 397.46 616.364C394.066 613.616 392.85 613.26 386.004 613.007C380.166 612.791 377.393 613.169 374.338 614.596ZM1258.93 614.676C1245.51 620.772 1242.29 640.593 1252.98 651.288C1261.5 659.801 1274.41 659.996 1283.77 651.753C1295.61 641.334 1293.25 621.876 1279.28 614.691C1274.37 612.165 1264.47 612.158 1258.93 614.676ZM1701.83 614.669C1692.98 618.745 1689.33 624.76 1689.33 635.283C1689.33 649.625 1699.3 658.77 1713.53 657.48C1720.68 656.833 1726.08 653.597 1730.06 647.585C1732.34 644.136 1732.87 642.112 1733.14 635.847C1733.55 626.243 1731.04 620.862 1723.9 616.032C1719.66 613.166 1718.31 612.786 1712.46 612.805C1708.17 612.819 1704.41 613.478 1701.83 614.669Z" fill="black" fill-opacity="0.856"/>
</svg>
